<svg width="24" height="25" viewBox="0 0 24 25" fill="none" xmlns="http://www.w3.org/2000/svg">
<circle cx="21.5" cy="2.5" r="2.5" fill="white"/>
<path d="M12.0199 21.5299C9.68987 21.5299 7.35987 21.1599 5.14987 20.4199C4.30987 20.1299 3.66987 19.5399 3.38987 18.7699C3.09987 17.9999 3.19987 17.1499 3.65987 16.3899L4.80987 14.4799C5.04987 14.0799 5.26987 13.2799 5.26987 12.8099V9.91992C5.26987 6.19992 8.29987 3.16992 12.0199 3.16992C15.7399 3.16992 18.7699 6.19992 18.7699 9.91992V12.8099C18.7699 13.2699 18.9899 14.0799 19.2299 14.4899L20.3699 16.3899C20.7999 17.1099 20.8799 17.9799 20.5899 18.7699C20.2999 19.5599 19.6699 20.1599 18.8799 20.4199C16.6799 21.1599 14.3499 21.5299 12.0199 21.5299ZM12.0199 4.66992C9.12987 4.66992 6.76987 7.01992 6.76987 9.91992V12.8099C6.76987 13.5399 6.46987 14.6199 6.09987 15.2499L4.94987 17.1599C4.72987 17.5299 4.66987 17.9199 4.79987 18.2499C4.91987 18.5899 5.21987 18.8499 5.62987 18.9899C9.80987 20.3899 14.2399 20.3899 18.4199 18.9899C18.7799 18.8699 19.0599 18.5999 19.1899 18.2399C19.3199 17.8799 19.2899 17.4899 19.0899 17.1599L17.9399 15.2499C17.5599 14.5999 17.2699 13.5299 17.2699 12.7999V9.91992C17.2699 7.01992 14.9199 4.66992 12.0199 4.66992Z" fill="white"/>
<path d="M13.8801 4.93969C13.8101 4.93969 13.7401 4.92969 13.6701 4.90969C13.3801 4.82969 13.1001 4.76969 12.8301 4.72969C11.9801 4.61969 11.1601 4.67969 10.3901 4.90969C10.1101 4.99969 9.81011 4.90969 9.62011 4.69969C9.43011 4.48969 9.37011 4.18969 9.48011 3.91969C9.89011 2.86969 10.8901 2.17969 12.0301 2.17969C13.1701 2.17969 14.1701 2.85969 14.5801 3.91969C14.6801 4.18969 14.6301 4.48969 14.4401 4.69969C14.2901 4.85969 14.0801 4.93969 13.8801 4.93969Z" fill="white"/>
<path d="M12.02 23.8105C11.03 23.8105 10.07 23.4105 9.37002 22.7105C8.67002 22.0105 8.27002 21.0505 8.27002 20.0605H9.77002C9.77002 20.6505 10.01 21.2305 10.43 21.6505C10.85 22.0705 11.43 22.3105 12.02 22.3105C13.26 22.3105 14.27 21.3005 14.27 20.0605H15.77C15.77 22.1305 14.09 23.8105 12.02 23.8105Z" fill="white"/>
</svg>
