<svg width="12" height="10" viewBox="0 0 12 10" fill="none" xmlns="http://www.w3.org/2000/svg">
<path d="M10.6101 7.82485C10.6101 8.06443 10.5149 8.29419 10.3455 8.4636C10.1761 8.63301 9.9463 8.72818 9.70672 8.72818H1.57863C1.33905 8.72818 1.10928 8.63301 0.939874 8.4636C0.770466 8.29419 0.675293 8.06443 0.675293 7.82485V2.85771C0.675293 2.61813 0.770466 2.38836 0.939874 2.21895C1.10928 2.04954 1.33905 1.95437 1.57863 1.95437H3.38482L4.28816 0.599609H6.99768L7.90102 1.95437H9.70721C9.94679 1.95437 10.1766 2.04954 10.346 2.21895C10.5154 2.38836 10.6105 2.61813 10.6105 2.85771L10.6101 7.82485Z" stroke="white" stroke-width="1.08333" stroke-linecap="round" stroke-linejoin="round"/>
<path d="M7.4488 5.11576C7.4488 5.47297 7.34288 5.82216 7.14444 6.11917C6.94599 6.41619 6.66393 6.64769 6.33392 6.78441C6.00392 6.92113 5.64078 6.95693 5.29042 6.88728C4.94007 6.81762 4.61824 6.64565 4.36562 6.3931C4.113 6.14055 3.94094 5.81876 3.87119 5.46843C3.80144 5.11809 3.83714 4.75494 3.97377 4.4249C4.11041 4.09485 4.34183 3.81273 4.6388 3.6142C4.93576 3.41568 5.28492 3.30967 5.64213 3.30957C5.87936 3.30951 6.11428 3.35618 6.33347 3.44692C6.55267 3.53766 6.75184 3.67069 6.91961 3.83842C7.08738 4.00614 7.22047 4.20528 7.31127 4.42445C7.40207 4.64362 7.4488 4.87853 7.4488 5.11576Z" stroke="white" stroke-width="1.08333" stroke-linecap="round" stroke-linejoin="round"/>
</svg>
