<svg width="19" height="19" viewBox="0 0 19 19" fill="none" xmlns="http://www.w3.org/2000/svg">
<path d="M8.48226 9.5C8.48226 9.76995 8.5895 10.0288 8.78039 10.2197C8.97127 10.4106 9.23017 10.5179 9.50012 10.5179C9.77007 10.5179 10.029 10.4106 10.2199 10.2197C10.4107 10.0288 10.518 9.76995 10.518 9.5C10.518 9.23005 10.4107 8.97115 10.2199 8.78027C10.029 8.58938 9.77007 8.48214 9.50012 8.48214C9.23017 8.48214 8.97127 8.58938 8.78039 8.78027C8.5895 8.97115 8.48226 9.23005 8.48226 9.5ZM12.7233 9.5C12.7233 9.76995 12.8306 10.0288 13.0215 10.2197C13.2123 10.4106 13.4712 10.5179 13.7412 10.5179C14.0111 10.5179 14.27 10.4106 14.4609 10.2197C14.6518 10.0288 14.759 9.76995 14.759 9.5C14.759 9.23005 14.6518 8.97115 14.4609 8.78027C14.27 8.58938 14.0111 8.48214 13.7412 8.48214C13.4712 8.48214 13.2123 8.58938 13.0215 8.78027C12.8306 8.97115 12.7233 9.23005 12.7233 9.5ZM4.24119 9.5C4.24119 9.76995 4.34843 10.0288 4.53932 10.2197C4.7302 10.4106 4.9891 10.5179 5.25905 10.5179C5.529 10.5179 5.7879 10.4106 5.97878 10.2197C6.16967 10.0288 6.27691 9.76995 6.27691 9.5C6.27691 9.23005 6.16967 8.97115 5.97878 8.78027C5.7879 8.58938 5.529 8.48214 5.25905 8.48214C4.9891 8.48214 4.7302 8.58938 4.53932 8.78027C4.34843 8.97115 4.24119 9.23005 4.24119 9.5ZM18.2622 5.81875C17.7829 4.68002 17.0959 3.65792 16.2201 2.78002C15.3504 1.9072 14.3181 1.21342 13.1814 0.737946C12.0151 0.248103 10.7767 0 9.50012 0H9.45771C8.17267 0.00636161 6.92791 0.260826 5.75738 0.761272C4.63043 1.24162 3.60771 1.93664 2.74621 2.80759C1.87892 3.68337 1.19822 4.70123 0.727464 5.83571C0.239741 7.01049 -0.0062413 8.25949 0.000120304 9.54453C0.00731581 11.0172 0.355717 12.4681 1.01798 13.7835V17.0067C1.01798 17.2654 1.12075 17.5135 1.30368 17.6964C1.48661 17.8794 1.73472 17.9821 1.99342 17.9821H5.21876C6.53411 18.6444 7.98506 18.9928 9.45771 19H9.50224C10.7724 19 12.0045 18.754 13.1644 18.2727C14.2953 17.8029 15.3239 17.1172 16.1925 16.2539C17.0683 15.3866 17.7575 14.373 18.2388 13.2427C18.7393 12.0722 18.9938 10.8275 19.0001 9.54241C19.0065 8.251 18.7563 6.99777 18.2622 5.81875ZM15.058 15.1067C13.5715 16.5783 11.5995 17.3884 9.50012 17.3884H9.46407C8.18539 17.382 6.91519 17.0639 5.79342 16.466L5.6153 16.3705H2.62958V13.3848L2.53416 13.2067C1.93617 12.0849 1.61809 10.8147 1.61173 9.53605C1.60325 7.42188 2.41117 5.43705 3.89342 3.94208C5.37356 2.4471 7.35202 1.62009 9.46619 1.61161H9.50224C10.5625 1.61161 11.591 1.8173 12.5601 2.22444C13.5058 2.62098 14.354 3.19141 15.0835 3.92087C15.8108 4.64821 16.3834 5.49855 16.7799 6.44431C17.1913 7.424 17.397 8.46306 17.3928 9.53605C17.38 11.6481 16.5509 13.6266 15.058 15.1067Z" fill="white"/>
</svg>
