<svg width="19" height="17" viewBox="0 0 19 17" fill="none" xmlns="http://www.w3.org/2000/svg">
<path d="M9.29417 3.37985C11.6261 3.37985 13.5188 5.27247 13.5188 7.60443C13.5188 8.14939 13.4089 8.66902 13.2188 9.14638L15.6902 11.6177C16.966 10.5532 17.9715 9.17596 18.5925 7.60443C17.1266 3.89527 13.523 1.26758 9.29421 1.26758C8.11132 1.26758 6.97916 1.47879 5.92725 1.859L7.75226 3.67978C8.22958 3.49391 8.7492 3.37985 9.29417 3.37985Z" fill="#3474FF"/>
<path d="M0.8449 1.07726L2.7713 3.00367L3.15575 3.38811C1.76164 4.47805 0.659032 5.92709 0 7.60422C1.46171 11.3134 5.06948 13.9411 9.29406 13.9411C10.6037 13.9411 11.8541 13.6876 12.999 13.2271L13.3581 13.5862L15.821 16.0533L16.8983 14.9803L1.92216 0L0.8449 1.07726ZM5.51729 5.74542L6.82269 7.05081C6.78466 7.23248 6.75932 7.41411 6.75932 7.60422C6.75932 9.00256 7.89571 10.139 9.29406 10.139C9.48416 10.139 9.66583 10.1136 9.84326 10.0756L11.1487 11.381C10.5868 11.6598 9.96156 11.8288 9.29406 11.8288C6.9621 11.8288 5.06948 9.93618 5.06948 7.60422C5.06948 6.93675 5.23847 6.3115 5.51729 5.74542Z" fill="#3474FF"/>
</svg>
