<svg width="10" height="9" viewBox="0 0 10 9" fill="none" xmlns="http://www.w3.org/2000/svg">
<path d="M4.69314 1.74855L5.05279 2.23466L5.41243 1.74855C5.78465 1.24544 6.37899 0.921001 7.0391 0.921001C8.15867 0.921001 9.0791 1.84486 9.0791 3.00252C9.0791 3.49277 9.00185 3.94447 8.86774 4.36362L8.86683 4.36651C8.54486 5.39686 7.88252 6.23435 7.15778 6.86421C6.43091 7.49592 5.66639 7.89675 5.1846 8.06252L5.18459 8.06249L5.17978 8.06421C5.16703 8.06876 5.12106 8.0789 5.05279 8.0789C4.98451 8.0789 4.93854 8.06876 4.9258 8.06421L4.92581 8.06418L4.92097 8.06252C4.43919 7.89675 3.67466 7.49592 2.94779 6.86421C2.22305 6.23435 1.56071 5.39686 1.23874 4.36651L1.23875 4.36651L1.23783 4.36363C1.10372 3.94447 1.02647 3.49277 1.02647 3.00252C1.02647 1.84486 1.9469 0.921001 3.06647 0.921001C3.72658 0.921001 4.32092 1.24544 4.69314 1.74855Z" stroke="#3474FF" stroke-width="0.894737"/>
</svg>
