<svg width="16" height="16" viewBox="0 0 16 16" fill="none" xmlns="http://www.w3.org/2000/svg">
<path fill-rule="evenodd" clip-rule="evenodd" d="M10.0648 0.752874C11.0686 -0.250958 12.6961 -0.250958 13.7 0.752874L14.9117 1.96461C15.9155 2.96844 15.9155 4.59597 14.9117 5.5998L6.00716 14.5044C5.88755 14.624 5.73521 14.7055 5.56933 14.7387L1.02534 15.6475C0.4258 15.7674 -0.102792 15.2388 0.0171153 14.6392L0.925914 10.0953C0.959089 9.92938 1.04062 9.77704 1.16023 9.65742L10.0648 0.752874ZM12.4882 1.96461L13.7 3.17634C14.0346 3.51095 14.0346 4.05346 13.7 4.38807L12.4882 5.59981L10.0648 3.17634L11.2765 1.96461C11.6111 1.63 12.1536 1.63 12.4882 1.96461ZM8.85305 4.38807L2.55541 10.6857L1.94954 13.715L4.97887 13.1092L11.2765 6.81154L8.85305 4.38807Z" fill="#3563E9"/>
</svg>
