                                                                                                                                                                                                                                                                                                                                                                                                                                        <svg width="167" height="132" viewBox="0 0 167 132" fill="none" xmlns="http://www.w3.org/2000/svg">
<path d="M83.7744 34.425C90.609 34.425 97.4436 34.4011 104.283 34.4488C105.428 34.4488 105.826 34.0935 105.814 32.9679C105.795 30.9814 105.969 28.9926 105.602 27.0252C105.492 26.4386 105.73 26.2359 106.248 26.1548C107.464 25.964 108.676 25.7422 109.889 25.5515C110.543 25.4513 110.843 25.6492 110.707 26.4076C110.531 27.5022 110.493 28.6182 110.381 29.7223C110.3 30.4973 110.645 30.8956 111.401 30.7716C114.299 30.2946 117.272 30.1754 120.065 29.2406C121.419 28.7851 122.471 27.6333 123.899 27.1659C124.787 26.875 124.994 27.0705 125.092 27.8813C125.76 33.8431 125.705 39.7691 124.138 45.614C123.501 47.9987 122.14 49.5058 119.581 50.04C115.453 50.8985 111.294 51.5209 107.118 52.0241C97.8394 53.1377 88.5176 53.7053 79.1767 53.4192C68.9225 53.1044 58.7445 52.1409 48.6525 50.2523C45.2542 49.6155 43.5563 47.8318 42.9101 44.56C41.8083 39.0195 41.6255 33.3356 42.3688 27.7359C42.4618 27.0419 42.6478 26.8082 43.3441 27.1349C44.4124 27.6381 45.5356 27.9624 46.4967 28.7494C47.565 29.6245 48.9911 29.7032 50.3241 29.9202C52.0507 30.1921 53.7748 30.4687 55.5037 30.712C56.8511 30.9027 57.1038 30.6357 56.9846 29.243C56.8964 28.2533 56.8153 27.2637 56.7032 26.2788C56.6388 25.6922 56.8702 25.4632 57.4401 25.5634C58.6539 25.7589 59.8654 25.9783 61.084 26.1452C61.7302 26.2335 61.9186 26.4744 61.7994 27.1564C61.4536 29.1619 61.4869 31.1841 61.63 33.2135C61.6992 34.2056 62.1213 34.444 63.0466 34.4417C69.9431 34.413 76.8588 34.425 83.7744 34.425ZM83.7744 43.2484H72.0894C69.5878 43.2484 67.0815 43.2484 64.5847 43.2484C64.2484 43.2484 63.7071 43.0385 63.7071 43.711C63.7071 45.8095 65.9416 48.2133 68.1069 48.4089C69.7285 48.5543 71.3549 48.6474 72.9765 48.7499C81.3515 49.3079 89.7123 49.079 98.0803 48.5305C100.801 48.354 102.387 47.0687 103.212 44.5623C103.646 43.2388 103.703 43.2412 102.344 43.2412L83.7744 43.2484ZM49.263 44.5051C49.2868 43.3628 48.5475 42.0822 47.9275 42.1729C47.1572 42.2826 47.1263 42.9455 47.1143 43.5393C47.0929 44.672 47.7272 45.6855 48.4211 45.6212C49.1151 45.5568 49.2129 44.9701 49.2582 44.4956L49.263 44.5051ZM120.201 43.4725C120.16 42.9097 120.141 42.2802 119.485 42.1204C118.83 41.9606 118.605 42.5258 118.374 42.9741C118.162 43.3335 118.057 43.7455 118.069 44.1625C118.082 44.5795 118.212 44.9844 118.446 45.3302C118.481 45.3915 118.529 45.4448 118.585 45.4868C118.642 45.5289 118.707 45.5588 118.776 45.5747C118.845 45.5905 118.916 45.5921 118.986 45.5791C119.055 45.5662 119.122 45.5391 119.18 45.4995C119.91 45.0226 120.12 44.2738 120.196 43.463L120.201 43.4725Z" fill="#3474FF"/>
<path d="M8.92023 108.586H1.3082C-0.134544 108.586 -0.148864 108.586 0.163533 107.215C1.53235 101.259 2.90515 95.3065 4.28193 89.3558C5.45043 84.2907 6.63804 79.2328 7.76601 74.1605C7.96394 73.2686 8.30017 72.9681 9.2469 72.9538C14.4933 72.8727 19.7206 72.5794 24.9574 72.9896C26.9987 73.1494 28.978 73.4784 30.7093 74.6732C33.0487 76.2852 33.9096 78.5364 33.4755 81.2931C33.1099 83.8393 31.8123 86.1592 29.8341 87.8034C29.0066 88.4973 28.7204 88.8121 29.8341 89.611C32.3643 91.4329 32.5908 94.1419 32.0018 96.9106C30.8332 102.426 25.8302 107.05 19.9829 108.119C16.2055 108.794 12.3828 108.541 8.92023 108.586ZM15.9837 99.7627C16.4249 99.7409 16.8641 99.6875 17.2977 99.6029C18.9073 99.2261 19.9829 97.5878 19.773 95.9042C19.6276 94.7429 18.8597 94.316 16.8971 94.3112C16.7787 94.3184 16.6601 94.3184 16.5417 94.3112C15.5879 94.1944 15.0608 94.533 14.9201 95.5441C14.7937 96.4408 14.5147 97.3136 14.3096 98.2007C13.9352 99.8008 13.9352 99.8008 15.9837 99.7531V99.7627ZM18.0393 85.9314C19.6466 85.9576 20.7602 85.1898 20.9773 83.9569C21.1513 82.9601 20.6124 82.1946 19.5846 81.9513C18.5568 81.7081 17.8771 81.8607 17.7675 83.0912C17.6849 83.7202 17.5452 84.3404 17.3501 84.9441C17.1594 85.6262 17.2905 86.0292 18.0393 85.9171V85.9314Z" fill="#3474FF"/>
<path d="M110.96 10.6671C111.289 9.05738 111.485 8.89522 112.923 9.13608C114.134 9.33639 115.36 9.51762 116.433 10.202C117.036 10.5884 117.504 11.0462 117.461 11.8189C117.411 12.6631 116.81 13.0637 116.111 13.3141C115.203 13.6278 114.241 13.7568 113.283 13.6932C113.23 14.2298 113.66 14.2441 113.936 14.4087C116.128 15.7441 118.095 17.3347 119.488 19.5286C120.299 20.8068 120.184 20.9809 118.772 21.2957C117.029 21.6796 115.298 22.1208 113.562 22.5334C113.132 22.6267 112.726 22.809 112.371 23.0686C112.016 23.3282 111.719 23.6592 111.499 24.0405C111.082 24.7559 110.483 24.9634 109.756 25.0588C109.004 25.1279 108.258 25.2394 107.519 25.3926C106.036 25.7599 104.698 25.8529 103.529 24.5365C102.943 23.8736 101.953 23.8211 101.08 23.7543C90.0176 22.7742 78.9525 22.6335 67.8804 23.6375C65.8844 23.8187 63.8836 23.8211 62.4408 25.5452C62.2167 25.8099 61.859 25.7384 61.5394 25.6859C60.5617 25.5238 59.5839 25.3378 58.6014 25.209C57.297 25.0492 56.0522 24.9204 55.332 23.5206C55.0125 22.9006 54.2303 22.6526 53.5149 22.488C51.8122 22.0922 50.1166 21.6749 48.4116 21.2957C47.0738 20.9952 46.9402 20.7639 47.7129 19.5811C49.1294 17.4134 51.0658 15.7846 53.2454 14.4277C53.5339 14.2465 54.061 14.2131 53.9608 13.7743C53.8606 13.3355 53.3647 13.5072 53.0379 13.4858C52.2413 13.4718 51.4555 13.2983 50.7271 12.9755C49.4537 12.3483 49.2963 11.0677 50.4172 10.2307C51.8217 9.20523 53.5173 9.0073 55.1675 8.89522C56.1738 8.82606 55.9187 9.80379 56.0617 10.586C56.9989 9.39362 57.8526 8.28951 58.7254 7.1997C59.3478 6.42705 60.0013 5.67825 60.6332 4.91276C62.9678 2.08211 65.9797 0.770525 69.6331 0.48913C76.5665 -0.030183 83.5247 -0.136097 90.4707 0.17196C93.6853 0.307888 96.8974 0.439052 100.081 0.951764C101.616 1.20056 103.054 1.86533 104.238 2.87384C106.37 4.63613 108.053 6.78714 109.703 8.98823C110.08 9.49856 110.457 9.99457 110.96 10.6671ZM110.28 13.1972C108.69 10.2518 106.78 7.49033 104.586 4.96284C103.11 3.26255 101.261 2.33966 99.0437 2.00341C95.1584 1.39696 91.2356 1.06229 87.3038 1.00183C81.063 0.920753 74.8318 0.975607 68.6506 2.0058C66.6117 2.34681 64.7945 3.06938 63.3208 4.64567C61.134 6.98507 59.3741 9.6154 57.7286 12.3364C57.6142 12.5295 57.4472 12.7346 57.5951 13.0756C75.0464 10.9246 92.5358 10.8578 110.273 13.1972H110.28Z" fill="#3474FF"/>
<path d="M108.236 109.126C104.091 109.095 100.003 108.156 96.2601 106.374C95.5256 106.024 95.3824 105.625 95.5589 104.888C96.2028 102.225 96.8205 99.5562 97.3952 96.8782C97.5383 96.2057 97.8244 95.8957 98.5064 95.9506C98.7841 95.9756 99.0634 95.9756 99.3411 95.9506C100.522 95.8218 101.268 96.046 101.864 97.3623C102.906 99.6492 105.203 100.412 107.504 100.873C108.592 101.122 109.719 101.153 110.819 100.963C111.604 100.826 112.348 100.514 112.996 100.05C114.634 98.8361 114.501 97.4649 112.674 96.5921C110.909 95.7479 108.997 95.3282 107.151 94.7153C106.436 94.4768 105.703 94.2741 105.005 93.9999C101.463 92.5691 99.6868 89.5405 100.2 85.7536C101.075 79.2624 104.921 75.3038 111.031 73.5248C117.026 71.7792 122.981 72.249 128.792 74.4977C130.45 75.1392 130.43 75.1678 130.027 76.9254C129.51 79.1694 128.971 81.4086 128.513 83.6646C128.327 84.5851 127.989 85.1169 126.961 84.9404C126.684 84.907 126.405 84.907 126.128 84.9404C125.175 85.0191 124.297 85.0119 124.087 83.7695C124.051 83.562 123.83 83.3736 123.67 83.2019C121.815 81.2298 117.14 80.2425 114.632 81.2942C114.109 81.4947 113.655 81.8416 113.325 82.2934C112.722 83.1423 112.848 83.9626 113.707 84.5397C114.565 85.1168 115.5 85.3816 116.451 85.663C118.278 86.2091 120.145 86.6168 121.912 87.3465C126.584 89.302 128.318 93.1676 126.474 97.9108C124.328 103.46 120.193 106.851 114.484 108.373C112.447 108.917 110.344 109.171 108.236 109.126Z" fill="#3474FF"/>
<path d="M54.1893 72.9814C58.043 72.9814 61.8943 73.01 65.7479 72.96C66.7018 72.96 66.9117 73.1984 66.6804 74.1118C66.1033 76.382 65.5548 78.6618 65.0969 80.9559C64.9157 81.8692 64.4817 82.0839 63.6399 82.0767C59.9054 82.0457 56.1734 82.06 52.4318 82.0767C51.4779 82.0767 50.4191 83.746 50.8054 84.6403C51.0009 85.0838 51.423 84.924 51.7473 84.9264C55.0859 84.9407 58.4245 84.9813 61.7631 84.9145C62.9102 84.893 63.1009 85.2293 62.8243 86.2809C62.2424 88.5067 61.7257 90.7491 61.2742 93.0082C61.1025 93.8691 60.7043 94.0742 59.8983 94.067C56.5239 94.0312 53.1472 94.067 49.7704 94.036C48.9215 94.036 48.4636 94.2435 48.3182 95.1592C48.1211 96.2927 47.8584 97.4138 47.5312 98.5169C47.3166 99.2871 47.5622 99.4707 48.3205 99.4707C52.0526 99.4421 55.7871 99.4898 59.5287 99.4373C60.5493 99.4373 60.8545 99.6591 60.5803 100.708C59.9865 102.974 59.4738 105.258 58.9826 107.548C58.8299 108.263 58.5319 108.552 57.7902 108.549C49.9652 108.532 42.141 108.532 34.3176 108.549C33.2897 108.549 33.2683 108.12 33.4638 107.288C36.0488 96.1592 38.6108 85.0218 41.1497 73.8757C41.3262 73.1054 41.7101 72.9719 42.3969 72.9743C46.3341 72.9957 50.2569 72.9838 54.1893 72.9814Z" fill="#3474FF"/>
<path d="M88.3499 108.587C86.6401 108.587 84.9326 108.561 83.2252 108.587C82.4764 108.602 82.1688 108.349 82.1449 107.569C82.102 106.138 81.9279 104.707 81.8683 103.293C81.8278 102.294 81.5201 101.786 80.3802 101.862C78.9922 101.951 77.5999 101.951 76.2118 101.862C75.3247 101.817 74.8597 102.158 74.4805 102.938C73.7007 104.543 72.7945 106.088 71.9885 107.681C71.657 108.335 71.223 108.58 70.4885 108.573C67.1928 108.54 63.8972 108.573 60.6015 108.554C59.3853 108.554 59.3471 108.475 59.9743 107.362C63.8979 100.322 67.8248 93.2847 71.7548 86.2498C74.056 82.1267 76.3716 78.0083 78.649 73.8708C78.9923 73.246 79.35 72.936 80.1107 72.9455C83.4493 72.9885 86.7879 72.9885 90.1265 72.9455C90.9278 72.9455 91.233 73.184 91.3189 74.002C92.2728 84.3961 93.2426 94.7879 94.2283 105.177C94.3284 106.238 94.9198 107.583 94.3045 108.277C93.6249 109.052 92.2036 108.475 91.109 108.542C90.179 108.63 89.2585 108.587 88.3499 108.587ZM81.451 86.2713L81.2125 86.195C80.4971 87.943 79.815 89.6981 79.0949 91.4413C78.1767 93.6591 78.1672 93.64 80.5972 93.5088C81.1815 93.4778 81.4605 93.3181 81.4534 92.6885C81.4367 90.5471 81.451 88.4103 81.451 86.2713Z" fill="#3474FF"/>
<path d="M167 72.9838C165.209 75.235 163.662 77.1857 162.109 79.134C158.489 83.665 154.866 88.1959 151.24 92.7268C150.658 93.4344 150.25 94.2682 150.047 95.1616C149.139 99.1894 148.206 103.212 147.336 107.25C147.138 108.165 146.816 108.59 145.783 108.568C142.605 108.502 139.423 108.521 136.245 108.568C135.25 108.568 135.033 108.278 135.269 107.3C136.223 103.324 137.084 99.3253 138.035 95.3476C138.224 94.6202 138.187 93.8528 137.931 93.1465C135.861 87.2229 133.788 81.2993 131.754 75.3638C130.95 73.0196 130.993 73.0053 133.464 73.0053C136.524 73.0053 139.586 72.991 142.645 73.0053C144.872 73.0196 144.395 72.6667 145.097 74.8606C145.798 77.0545 146.475 79.3152 147.243 81.8287C148.588 80.0044 149.766 78.3852 150.963 76.7827C151.888 75.545 152.613 73.9497 153.846 73.2056C155.079 72.4616 156.791 73.0244 158.296 73.0077C161.067 72.9624 163.84 72.9838 167 72.9838Z" fill="#3474FF"/>
<path d="M123.36 49.2686C123.639 52.29 121.882 54.4076 119.068 54.7176C117.079 54.9346 115.116 54.7915 113.137 54.6699C111.825 54.5888 111.379 53.5586 110.8 52.7049C110.497 52.2566 111.038 52.2566 111.32 52.2065C113.545 51.8297 115.779 51.4911 117.997 51.0714C119.843 50.7185 121.724 50.3941 123.36 49.2686Z" fill="#3474FF"/>
<path d="M43.7104 49.2158C45.7112 50.7158 47.8717 50.909 49.9536 51.3144C51.8995 51.6912 53.8645 51.9606 55.8248 52.2539C56.4615 52.3493 56.719 52.5353 56.2659 53.1554C55.6197 54.0401 54.9591 54.7078 53.6905 54.7627C51.7944 54.8628 49.8943 54.8628 47.9981 54.7627C45.9211 54.6339 44.8122 53.6037 44.2303 51.7508C43.9481 50.9318 43.7734 50.0797 43.7104 49.2158Z" fill="#3474FF"/>
<path d="M119.036 17.627C120.62 18.4211 121.807 19.58 122.813 21.1825C121.571 21.2589 120.786 21.0776 120.376 19.8948C120.095 19.0697 119.494 18.3686 119.036 17.627Z" fill="#3474FF"/>
<path d="M44.4575 21.2442C45.4807 19.7395 46.7823 18.4443 48.2921 17.4287C47.7079 18.5424 46.9925 19.5583 46.4416 20.6791C46.1364 21.3015 45.3256 21.0225 44.4575 21.2442Z" fill="#3474FF"/>
<path d="M39.0424 122.554C38.9788 122.942 38.8293 123.298 38.594 123.623C38.3588 123.941 38.0376 124.198 37.6306 124.395C37.23 124.592 36.7562 124.691 36.2093 124.691H35.1982L34.769 127.095H33.1378L34.3207 120.398H36.9629C37.6624 120.398 38.1902 120.554 38.5464 120.866C38.9025 121.171 39.0805 121.588 39.0805 122.115C39.0805 122.274 39.0678 122.421 39.0424 122.554ZM36.3047 123.413C36.9152 123.413 37.2745 123.127 37.3826 122.554C37.3953 122.452 37.4017 122.379 37.4017 122.335C37.4017 122.131 37.3349 121.976 37.2014 121.867C37.0742 121.753 36.8771 121.696 36.61 121.696H35.7229L35.4272 123.413H36.3047ZM41.8756 120.398L41.1698 124.395C41.1443 124.561 41.1316 124.675 41.1316 124.739C41.1316 125.031 41.2143 125.257 41.3796 125.416C41.5449 125.569 41.7898 125.645 42.1141 125.645C42.4956 125.645 42.8072 125.537 43.0489 125.321C43.2906 125.104 43.4464 124.796 43.5163 124.395L44.2222 120.398H45.8533L45.1474 124.395C45.0393 124.999 44.8231 125.511 44.4988 125.931C44.1808 126.344 43.7897 126.653 43.3255 126.856C42.8677 127.06 42.3685 127.161 41.8279 127.161C41.1284 127.161 40.5624 126.98 40.13 126.618C39.704 126.255 39.4909 125.731 39.4909 125.044C39.4909 124.84 39.51 124.624 39.5482 124.395L40.2445 120.398H41.8756ZM49.7364 120.398C50.4295 120.398 50.9573 120.557 51.3198 120.875C51.6823 121.187 51.8635 121.594 51.8635 122.096C51.8635 122.243 51.8508 122.379 51.8254 122.507C51.7491 122.952 51.5551 123.349 51.2435 123.699C50.9319 124.049 50.5154 124.297 49.9939 124.443L51.0718 127.095H49.2308L48.2865 124.567H47.8954L47.447 127.095H45.8159L46.9987 120.398H49.7364ZM50.1561 122.573C50.1688 122.472 50.1751 122.405 50.1751 122.373C50.1751 122.17 50.1084 122.014 49.9748 121.906C49.8476 121.791 49.6569 121.734 49.4025 121.734H48.3914L48.0957 123.413H49.1068C49.4057 123.413 49.641 123.34 49.8127 123.193C49.9907 123.047 50.1052 122.84 50.1561 122.573ZM54.6998 127.161C53.9749 127.161 53.3835 127.006 52.9256 126.694C52.4741 126.376 52.2484 125.928 52.2484 125.349C52.2484 125.292 52.2547 125.206 52.2674 125.092H53.9653C53.9463 125.333 54.0035 125.524 54.137 125.664C54.2706 125.804 54.4741 125.874 54.7475 125.874C54.9955 125.874 55.1895 125.82 55.3294 125.712C55.4757 125.603 55.5488 125.451 55.5488 125.254C55.5488 125.05 55.4566 124.885 55.2722 124.758C55.0941 124.631 54.8143 124.487 54.4327 124.328C54.0639 124.176 53.7618 124.033 53.5266 123.899C53.2976 123.759 53.0973 123.572 52.9256 123.336C52.7539 123.101 52.6681 122.805 52.6681 122.449C52.6617 122.011 52.7698 121.629 52.9924 121.305C53.215 120.98 53.5234 120.732 53.9176 120.561C54.3119 120.389 54.7634 120.303 55.2722 120.303C55.73 120.303 56.137 120.376 56.4931 120.522C56.8492 120.662 57.1259 120.869 57.323 121.142C57.5201 121.41 57.6187 121.728 57.6187 122.096C57.6187 122.192 57.6155 122.262 57.6092 122.306H55.8731C55.8795 122.281 55.8826 122.243 55.8826 122.192C55.8826 122.014 55.8191 121.871 55.6919 121.763C55.571 121.648 55.4025 121.591 55.1863 121.591C54.9574 121.591 54.7698 121.648 54.6235 121.763C54.4836 121.871 54.4137 122.02 54.4137 122.211C54.4137 122.402 54.5027 122.564 54.6808 122.697C54.8588 122.825 55.1354 122.974 55.5106 123.146C55.8858 123.317 56.1911 123.476 56.4264 123.623C56.668 123.769 56.8747 123.966 57.0464 124.214C57.2181 124.456 57.3039 124.755 57.3039 125.111C57.3039 125.505 57.199 125.858 56.9891 126.169C56.7793 126.481 56.4772 126.726 56.083 126.904C55.6887 127.076 55.2276 127.161 54.6998 127.161ZM60.5573 121.686L60.3189 123.079H62.5033L62.2839 124.309H60.0995L59.8324 125.807H62.3029L62.074 127.095H57.9723L59.1551 120.398H63.2568L63.0279 121.686H60.5573ZM71.3406 120.398L71.1212 121.686H69.3375L68.3836 127.095H66.7524L67.7063 121.686H65.9321L66.161 120.398H71.3406ZM77.9588 120.398L76.776 127.095H75.1449L75.6314 124.319H73.094L72.6076 127.095H70.9764L72.1592 120.398H73.7904L73.323 123.031H75.8603L76.3277 120.398H77.9588ZM80.5386 121.686L80.3001 123.079H82.4845L82.2651 124.309H80.0807L79.8136 125.807H82.2842L82.0552 127.095H77.9535L79.1364 120.398H83.2381L83.0091 121.686H80.5386ZM89.0134 120.398C89.6303 120.398 90.1613 120.51 90.6064 120.732C91.0579 120.949 91.4013 121.257 91.6366 121.658C91.8783 122.052 91.9991 122.516 91.9991 123.05C91.9991 123.235 91.9768 123.467 91.9323 123.747C91.8179 124.402 91.5699 124.983 91.1883 125.492C90.8131 126.001 90.333 126.395 89.7479 126.675C89.1692 126.955 88.5301 127.095 87.8306 127.095H85.3219L86.5047 120.398H89.0134ZM87.9737 125.702C88.5906 125.702 89.1025 125.53 89.5095 125.187C89.9165 124.844 90.1708 124.363 90.2726 123.747C90.3044 123.556 90.3203 123.397 90.3203 123.27C90.3203 122.799 90.1772 122.437 89.891 122.182C89.6049 121.922 89.1979 121.791 88.6701 121.791H87.8879L87.2011 125.702H87.9737ZM96.1729 120.398C96.8661 120.398 97.3939 120.557 97.7564 120.875C98.1189 121.187 98.3001 121.594 98.3001 122.096C98.3001 122.243 98.2874 122.379 98.2619 122.507C98.1856 122.952 97.9917 123.349 97.6801 123.699C97.3685 124.049 96.9519 124.297 96.4305 124.443L97.5084 127.095H95.6674L94.723 124.567H94.3319L93.8836 127.095H92.2525L93.4353 120.398H96.1729ZM96.5926 122.573C96.6054 122.472 96.6117 122.405 96.6117 122.373C96.6117 122.17 96.5449 122.014 96.4114 121.906C96.2842 121.791 96.0934 121.734 95.8391 121.734H94.828L94.5323 123.413H95.5434C95.8423 123.413 96.0775 123.34 96.2492 123.193C96.4273 123.047 96.5418 122.84 96.5926 122.573ZM101.289 120.398L100.106 127.095H98.4751L99.6579 120.398H101.289ZM103.702 120.398L104.474 125.454L107.021 120.398H108.757L105.199 127.095H103.158L101.966 120.398H103.702ZM110.841 121.686L110.603 123.079H112.787L112.568 124.309H110.383L110.116 125.807H112.587L112.358 127.095H108.256L109.439 120.398H113.541L113.312 121.686H110.841Z" fill="#3474FF"/>
</svg>
