<svg width="87" height="68" viewBox="0 0 87 68" fill="none" xmlns="http://www.w3.org/2000/svg">
<path d="M43.6369 17.9315C47.1969 17.9315 50.7569 17.9191 54.3194 17.9439C54.9157 17.9439 55.1231 17.7589 55.1169 17.1726C55.107 16.1378 55.1977 15.1019 55.0064 14.0771C54.9492 13.7715 55.0734 13.6659 55.343 13.6237C55.9765 13.5243 56.6075 13.4088 57.2398 13.3094C57.5801 13.2573 57.7366 13.3604 57.6658 13.7554C57.5739 14.3255 57.554 14.9069 57.4957 15.482C57.4534 15.8857 57.6335 16.0931 58.0273 16.0285C59.5365 15.7801 61.0855 15.718 62.5401 15.2311C63.2456 14.9938 63.7934 14.3938 64.5375 14.1504C64.9995 13.9988 65.1076 14.1007 65.1585 14.523C65.5063 17.6284 65.4778 20.7152 64.6617 23.7597C64.33 25.0019 63.6207 25.7869 62.2879 26.0652C60.1377 26.5124 57.9714 26.8366 55.7964 27.0987C50.9631 27.6788 46.1075 27.9744 41.242 27.8253C35.9007 27.6614 30.5991 27.1595 25.3423 26.1757C23.5722 25.8441 22.6878 24.9149 22.3512 23.2107C21.7773 20.3248 21.6821 17.3641 22.0692 14.4473C22.1177 14.0858 22.2146 13.9641 22.5773 14.1342C23.1337 14.3963 23.7188 14.5653 24.2194 14.9752C24.7759 15.4311 25.5187 15.472 26.2131 15.5851C27.1124 15.7267 28.0105 15.8708 28.911 15.9975C29.6129 16.0968 29.7445 15.9577 29.6824 15.2323C29.6365 14.7168 29.5942 14.2013 29.5358 13.6883C29.5023 13.3827 29.6228 13.2635 29.9197 13.3157C30.5519 13.4175 31.183 13.5318 31.8177 13.6187C32.1543 13.6647 32.2525 13.7902 32.1904 14.1454C32.0102 15.1901 32.0276 16.2434 32.1021 17.3005C32.1382 17.8172 32.3581 17.9415 32.84 17.9402C36.4323 17.9253 40.0346 17.9315 43.6369 17.9315ZM43.6369 22.5275H37.5503C36.2472 22.5275 34.9417 22.5275 33.6412 22.5275C33.4661 22.5275 33.1841 22.4182 33.1841 22.7685C33.1841 23.8616 34.348 25.1137 35.4759 25.2156C36.3205 25.2913 37.1677 25.3398 38.0124 25.3932C42.3748 25.6838 46.7298 25.5646 51.0886 25.2789C52.5059 25.187 53.3319 24.5175 53.7617 23.2119C53.9878 22.5225 54.0176 22.5238 53.3096 22.5238L43.6369 22.5275ZM25.6603 23.1821C25.6727 22.5871 25.2877 21.9201 24.9647 21.9673C24.5635 22.0244 24.5473 22.3698 24.5411 22.6791C24.5299 23.2691 24.8604 23.797 25.2218 23.7635C25.5833 23.7299 25.6342 23.4244 25.6578 23.1772L25.6603 23.1821ZM62.6109 22.6443C62.5897 22.3511 62.5798 22.0232 62.2382 21.94C61.8966 21.8568 61.7799 22.1511 61.6594 22.3847C61.549 22.5719 61.494 22.7865 61.5006 23.0037C61.5072 23.2209 61.5751 23.4318 61.6966 23.6119C61.715 23.6438 61.7398 23.6716 61.7694 23.6935C61.799 23.7154 61.8329 23.731 61.8688 23.7392C61.9046 23.7475 61.9418 23.7483 61.9781 23.7416C62.0143 23.7348 62.0487 23.7207 62.0792 23.7001C62.4593 23.4517 62.5686 23.0616 62.6084 22.6393L62.6109 22.6443Z" fill="white"/>
<path d="M4.64642 56.561H0.681425C-0.070082 56.561 -0.077541 56.561 0.085182 55.8468C0.798182 52.7447 1.51326 49.6438 2.2304 46.5442C2.83905 43.9059 3.45766 41.2712 4.04521 38.6292C4.14831 38.1646 4.32345 38.0081 4.81658 38.0006C7.54934 37.9584 10.2722 37.8056 13 38.0193C14.0632 38.1025 15.0942 38.2739 15.996 38.8962C17.2146 39.7359 17.663 40.9085 17.4369 42.3445C17.2465 43.6707 16.5706 44.8791 15.5402 45.7356C15.1091 46.097 14.9601 46.261 15.5402 46.6771C16.8581 47.6261 16.9761 49.0372 16.6693 50.4794C16.0606 53.3525 13.4546 55.761 10.4088 56.3175C8.44121 56.6691 6.45004 56.5374 4.64642 56.561ZM8.32569 51.965C8.55553 51.9537 8.78426 51.9259 9.01012 51.8818C9.84858 51.6855 10.4088 50.8322 10.2995 49.9552C10.2237 49.3503 9.82374 49.1279 8.80145 49.1254C8.73981 49.1291 8.678 49.1291 8.61636 49.1254C8.1195 49.0646 7.84498 49.2409 7.77169 49.7676C7.70585 50.2347 7.56051 50.6893 7.45369 51.1514C7.25867 51.9849 7.25867 51.9849 8.32569 51.96V51.965ZM9.39645 44.7605C10.2337 44.7741 10.8137 44.3742 10.9268 43.732C11.0174 43.2127 10.7367 42.814 10.2014 42.6873C9.66599 42.5606 9.31196 42.6401 9.25482 43.2811C9.21182 43.6087 9.13906 43.9318 9.03744 44.2462C8.93807 44.6015 9.00641 44.8114 9.39645 44.753V44.7605Z" fill="white"/>
<path d="M57.7975 5.55632C57.9689 4.71786 58.0708 4.6334 58.8198 4.75886C59.4508 4.8632 60.0893 4.9576 60.6482 5.3141C60.9625 5.51533 61.206 5.75383 61.1836 6.15629C61.1575 6.59601 60.8445 6.80469 60.4806 6.93512C60.0076 7.09856 59.5067 7.16571 59.0073 7.13263C58.98 7.41211 59.2036 7.41956 59.3477 7.50527C60.4892 8.20088 61.514 9.0294 62.2394 10.1722C62.6618 10.838 62.6022 10.9287 61.8668 11.0926C60.9588 11.2926 60.057 11.5224 59.1527 11.7373C58.9287 11.7859 58.7174 11.8809 58.5324 12.0161C58.3473 12.1513 58.1926 12.3238 58.0782 12.5224C57.8608 12.895 57.549 13.0031 57.1702 13.0528C56.7788 13.0888 56.3899 13.1468 56.0051 13.2267C55.2324 13.418 54.5356 13.4664 53.9269 12.7807C53.6213 12.4354 53.1058 12.4081 52.6512 12.3733C46.8888 11.8628 41.1252 11.7895 35.3579 12.3124C34.3182 12.4068 33.276 12.4081 32.5245 13.3062C32.4077 13.444 32.2214 13.4068 32.0549 13.3794C31.5457 13.295 31.0364 13.1981 30.5246 13.131C29.8451 13.0478 29.1967 12.9807 28.8216 12.2516C28.6551 11.9286 28.2477 11.7994 27.8751 11.7137C26.9882 11.5075 26.105 11.2901 25.2168 11.0926C24.52 10.9361 24.4504 10.8156 24.8529 10.1995C25.5907 9.0704 26.5994 8.222 27.7347 7.51521C27.885 7.42081 28.1595 7.40341 28.1073 7.17485C28.0552 6.9463 27.7968 7.03574 27.6266 7.02456C27.2117 7.01727 26.8024 6.92688 26.423 6.75873C25.7597 6.43205 25.6777 5.765 26.2615 5.32901C26.9931 4.79488 27.8763 4.69178 28.7359 4.6334C29.2601 4.59738 29.1272 5.10666 29.2017 5.51409C29.6899 4.89301 30.1346 4.31789 30.5892 3.75022C30.9134 3.34776 31.2537 2.95772 31.5829 2.55899C32.799 1.08454 34.3678 0.401356 36.2708 0.254781C39.8823 -0.0157219 43.5068 -0.0708908 47.1248 0.0895716C48.7993 0.160375 50.4724 0.228696 52.1307 0.495761C52.9304 0.625355 53.6792 0.971624 54.2958 1.49694C55.4063 2.4149 56.2833 3.53533 57.1429 4.68184C57.3391 4.94767 57.5354 5.20603 57.7975 5.55632ZM57.4435 6.87425C56.6151 5.34 55.6204 3.90161 54.4772 2.58508C53.7083 1.69942 52.7456 1.21869 51.5904 1.04355C49.5666 0.727659 47.5233 0.553332 45.4753 0.521841C42.2245 0.479608 38.9788 0.50818 35.7591 1.04479C34.697 1.22242 33.7505 1.5988 32.9828 2.41987C31.8438 3.63843 30.9271 5.00853 30.07 6.42584C30.0103 6.52645 29.9234 6.63327 30.0004 6.8109C39.0905 5.69047 48.2006 5.65569 57.4398 6.87425H57.4435Z" fill="white"/>
<path d="M56.3786 56.8424C54.2194 56.8265 52.09 56.3372 50.1405 55.409C49.7579 55.2264 49.6833 55.0189 49.7753 54.6351C50.1106 53.2476 50.4324 51.8576 50.7317 50.4627C50.8063 50.1124 50.9553 49.9509 51.3106 49.9795C51.4552 49.9925 51.6007 49.9925 51.7453 49.9795C52.3602 49.9124 52.749 50.0292 53.0596 50.7148C53.6024 51.9061 54.7986 52.3036 55.9973 52.5433C56.564 52.6733 57.1509 52.6894 57.7238 52.5905C58.1328 52.5191 58.5205 52.3565 58.858 52.1148C59.7113 51.4825 59.6417 50.7683 58.6903 50.3136C57.7711 49.8739 56.7748 49.6553 55.8134 49.336C55.4408 49.2118 55.0594 49.1062 54.6955 48.9634C52.8509 48.2181 51.9254 46.6406 52.1925 44.668C52.6484 41.2869 54.652 39.2249 57.8344 38.2982C60.9572 37.3889 64.0589 37.6336 67.086 38.805C67.9493 39.1391 67.9394 39.1541 67.7295 40.0695C67.4599 41.2384 67.1792 42.4048 66.9407 43.5799C66.8438 44.0594 66.6674 44.3364 66.1321 44.2444C65.9881 44.227 65.8425 44.227 65.6985 44.2444C65.2017 44.2854 64.7446 44.2817 64.6352 43.6345C64.6166 43.5265 64.5011 43.4283 64.4179 43.3389C63.4515 42.3116 61.0168 41.7974 59.7101 42.3452C59.4378 42.4496 59.2015 42.6303 59.0294 42.8656C58.7151 43.3078 58.7809 43.7351 59.2281 44.0357C59.6753 44.3363 60.1622 44.4742 60.6578 44.6208C61.6093 44.9053 62.5819 45.1177 63.5024 45.4978C65.9358 46.5163 66.8388 48.5299 65.8786 51.0005C64.7607 53.8911 62.6068 55.6574 59.6331 56.4499C58.5722 56.7335 57.4765 56.8656 56.3786 56.8424Z" fill="white"/>
<path d="M28.2265 38.0151C30.2339 38.0151 32.24 38.03 34.2473 38.0039C34.7442 38.0039 34.8535 38.1281 34.733 38.6039C34.4324 39.7864 34.1467 40.9739 33.9082 42.1689C33.8138 42.6446 33.5877 42.7564 33.1492 42.7527C31.204 42.7365 29.26 42.744 27.3111 42.7527C26.8142 42.7527 26.2627 43.6222 26.4639 44.088C26.5658 44.3191 26.7856 44.2358 26.9546 44.2371C28.6936 44.2445 30.4326 44.2656 32.1716 44.2309C32.7691 44.2197 32.8685 44.3948 32.7244 44.9426C32.4213 46.102 32.1522 47.27 31.917 48.4468C31.8276 48.8952 31.6201 49.002 31.2003 48.9983C29.4426 48.9796 27.6837 48.9983 25.9248 48.9821C25.4826 48.9821 25.2441 49.0902 25.1684 49.5672C25.0657 50.1576 24.9289 50.7416 24.7584 51.3161C24.6466 51.7174 24.7746 51.813 25.1696 51.813C27.1136 51.7981 29.0588 51.8229 31.0078 51.7956C31.5394 51.7956 31.6984 51.9111 31.5555 52.4577C31.2462 53.6377 30.9792 54.8277 30.7233 56.0202C30.6438 56.3929 30.4885 56.5432 30.1022 56.5419C26.0263 56.5328 21.9508 56.5328 17.8756 56.5419C17.3403 56.5419 17.3291 56.3183 17.4309 55.8848C18.7774 50.0881 20.1119 44.2868 21.4344 38.4809C21.5263 38.0797 21.7263 38.0101 22.0841 38.0114C24.1349 38.0225 26.1782 38.0163 28.2265 38.0151Z" fill="white"/>
<path d="M46.0204 56.5616C45.1297 56.5616 44.2404 56.5479 43.351 56.5616C42.9609 56.569 42.8007 56.4373 42.7883 56.0311C42.7659 55.2859 42.6752 54.5405 42.6442 53.8039C42.6231 53.2835 42.4628 53.0189 41.8691 53.0586C41.146 53.1046 40.4208 53.1046 39.6978 53.0586C39.2357 53.035 38.9935 53.2127 38.796 53.6189C38.3898 54.4548 37.9178 55.2598 37.4979 56.0895C37.3253 56.4299 37.0992 56.5578 36.7166 56.5541C34.9999 56.5367 33.2833 56.5541 31.5666 56.5442C30.9331 56.5442 30.9132 56.5032 31.2399 55.9231C33.2837 52.2562 35.3291 48.5906 37.3762 44.9262C38.5749 42.7785 39.781 40.6333 40.9673 38.4782C41.1461 38.1527 41.3324 37.9912 41.7287 37.9962C43.4677 38.0186 45.2067 38.0186 46.9458 37.9962C47.3631 37.9962 47.5221 38.1204 47.5669 38.5465C48.0637 43.9607 48.5689 49.3736 49.0823 54.7853C49.1345 55.338 49.4425 56.0386 49.122 56.4001C48.768 56.8038 48.0277 56.5032 47.4576 56.5379C46.9731 56.5839 46.4936 56.5616 46.0204 56.5616ZM42.4268 44.9374L42.3026 44.8977C41.9299 45.8082 41.5747 46.7224 41.1995 47.6304C40.7213 48.7856 40.7163 48.7757 41.9821 48.7074C42.2864 48.6912 42.4318 48.608 42.4281 48.2801C42.4194 47.1646 42.4268 46.0516 42.4268 44.9374Z" fill="white"/>
<path d="M86.9881 38.0164C86.0553 39.189 85.2491 40.205 84.4405 41.2199C82.5549 43.58 80.6676 45.9401 78.7787 48.3002C78.4757 48.6688 78.263 49.1031 78.1576 49.5685C77.6843 51.6665 77.1986 53.762 76.7453 55.865C76.6422 56.3419 76.4744 56.5631 75.9366 56.5519C74.2808 56.5171 72.6237 56.527 70.9679 56.5519C70.45 56.5519 70.3369 56.4003 70.4599 55.8911C70.9568 53.8204 71.4052 51.7373 71.9008 49.6653C71.9988 49.2864 71.9798 48.8867 71.8462 48.5188C70.768 45.4333 69.6885 42.3478 68.629 39.256C68.2104 38.035 68.2327 38.0275 69.5196 38.0275C71.1133 38.0275 72.7082 38.0201 74.3019 38.0275C75.4621 38.035 75.2137 37.8511 75.5789 38.9939C75.944 40.1367 76.2968 41.3143 76.6968 42.6235C77.3974 41.6733 78.011 40.8298 78.6346 39.9951C79.1165 39.3504 79.4941 38.5194 80.1363 38.1319C80.7785 37.7443 81.6704 38.0375 82.4542 38.0288C83.8976 38.0052 85.3423 38.0164 86.9881 38.0164Z" fill="white"/>
<path d="M64.2565 25.6631C64.4018 27.2369 63.4863 28.3399 62.0206 28.5014C60.9846 28.6145 59.9623 28.5399 58.9313 28.4766C58.2481 28.4343 58.0159 27.8977 57.714 27.453C57.5563 27.2195 57.8382 27.2195 57.9848 27.1934C59.1437 26.9972 60.3076 26.8208 61.4629 26.6022C62.4243 26.4183 63.4044 26.2494 64.2565 25.6631Z" fill="white"/>
<path d="M22.7681 25.6357C23.8102 26.4171 24.9356 26.5177 26.02 26.7288C27.0336 26.9251 28.0572 27.0655 29.0782 27.2183C29.4099 27.2679 29.544 27.3648 29.308 27.6878C28.9714 28.1486 28.6274 28.4964 27.9665 28.525C26.9789 28.5772 25.9891 28.5772 25.0015 28.525C23.9195 28.4579 23.3419 27.9213 23.0388 26.9562C22.8919 26.5296 22.8009 26.0857 22.7681 25.6357Z" fill="white"/>
<path d="M62.0044 9.18164C62.8292 9.59528 63.4478 10.199 63.972 11.0337C63.3248 11.0734 62.9161 10.979 62.7025 10.3629C62.5559 9.93315 62.2429 9.56795 62.0044 9.18164Z" fill="white"/>
<path d="M23.1572 11.0656C23.6902 10.2818 24.3682 9.60715 25.1546 9.07812C24.8503 9.65821 24.4777 10.1874 24.1907 10.7712C24.0317 11.0954 23.6094 10.9501 23.1572 11.0656Z" fill="white"/>
<path d="M20.2407 63.6281C20.2076 63.8301 20.1297 64.0156 20.0072 64.1846C19.8846 64.3502 19.7173 64.4844 19.5054 64.587C19.2967 64.6897 19.0499 64.7411 18.765 64.7411H18.2383L18.0148 65.9932H17.1651L17.7812 62.5052H19.1575C19.5219 62.5052 19.7968 62.5863 19.9823 62.7486C20.1678 62.9076 20.2606 63.1246 20.2606 63.3995C20.2606 63.4823 20.254 63.5585 20.2407 63.6281ZM18.8147 64.0753C19.1327 64.0753 19.3199 63.9262 19.3762 63.6281C19.3828 63.5751 19.3861 63.537 19.3861 63.5138C19.3861 63.4078 19.3513 63.3267 19.2818 63.2703C19.2155 63.2107 19.1128 63.1809 18.9737 63.1809H18.5116L18.3576 64.0753H18.8147ZM21.7165 62.5052L21.3488 64.587C21.3356 64.6732 21.329 64.7328 21.329 64.7659C21.329 64.9183 21.372 65.0359 21.4581 65.1187C21.5443 65.1982 21.6718 65.2379 21.8407 65.2379C22.0395 65.2379 22.2018 65.1816 22.3277 65.069C22.4535 64.9564 22.5347 64.7957 22.5711 64.587L22.9388 62.5052H23.7884L23.4208 64.587C23.3644 64.9017 23.2518 65.1684 23.0829 65.387C22.9173 65.6023 22.7136 65.763 22.4717 65.8689C22.2333 65.9749 21.9732 66.0279 21.6917 66.0279C21.3273 66.0279 21.0325 65.9335 20.8073 65.7447C20.5853 65.5559 20.4744 65.2826 20.4744 64.9249C20.4744 64.8189 20.4843 64.7063 20.5042 64.587L20.8669 62.5052H21.7165ZM25.8111 62.5052C26.1721 62.5052 26.4471 62.588 26.6359 62.7536C26.8247 62.9159 26.9191 63.1279 26.9191 63.3896C26.9191 63.4658 26.9124 63.537 26.8992 63.6032C26.8594 63.8351 26.7584 64.0421 26.5961 64.2243C26.4338 64.4065 26.2168 64.5357 25.9452 64.6119L26.5067 65.9932H25.5477L25.0558 64.6765H24.8521L24.6186 65.9932H23.769L24.3851 62.5052H25.8111ZM26.0297 63.638C26.0363 63.585 26.0396 63.5502 26.0396 63.5337C26.0396 63.4277 26.0048 63.3465 25.9353 63.2902C25.869 63.2306 25.7697 63.2008 25.6372 63.2008H25.1105L24.9565 64.0753H25.4831C25.6388 64.0753 25.7614 64.0372 25.8508 63.961C25.9436 63.8848 26.0032 63.7771 26.0297 63.638ZM28.3965 66.0279C28.0189 66.0279 27.7108 65.9468 27.4723 65.7845C27.2371 65.6189 27.1195 65.3853 27.1195 65.0839C27.1195 65.0541 27.1228 65.0094 27.1295 64.9497H28.0139C28.0039 65.0756 28.0338 65.175 28.1033 65.2479C28.1729 65.3207 28.2789 65.3572 28.4213 65.3572C28.5505 65.3572 28.6515 65.329 28.7244 65.2727C28.8006 65.2164 28.8387 65.1369 28.8387 65.0342C28.8387 64.9282 28.7906 64.8421 28.6946 64.7758C28.6018 64.7096 28.4561 64.6351 28.2573 64.5523C28.0652 64.4728 27.9079 64.3982 27.7853 64.3287C27.6661 64.2558 27.5617 64.1581 27.4723 64.0355C27.3829 63.913 27.3381 63.7589 27.3381 63.5734C27.3348 63.3449 27.3911 63.1461 27.5071 62.9772C27.623 62.8083 27.7837 62.6791 27.989 62.5896C28.1944 62.5002 28.4296 62.4555 28.6946 62.4555C28.9331 62.4555 29.1451 62.4936 29.3306 62.5698C29.5161 62.6426 29.6602 62.7503 29.7628 62.8927C29.8655 63.0319 29.9169 63.1975 29.9169 63.3896C29.9169 63.4393 29.9152 63.4757 29.9119 63.4989H29.0076C29.0109 63.4857 29.0126 63.4658 29.0126 63.4393C29.0126 63.3465 28.9795 63.272 28.9132 63.2157C28.8503 63.1561 28.7625 63.1263 28.6499 63.1263C28.5306 63.1263 28.4329 63.1561 28.3567 63.2157C28.2838 63.272 28.2474 63.3498 28.2474 63.4492C28.2474 63.5486 28.2938 63.6331 28.3865 63.7026C28.4793 63.7689 28.6234 63.8467 28.8188 63.9361C29.0142 64.0256 29.1732 64.1084 29.2958 64.1846C29.4217 64.2608 29.5293 64.3634 29.6188 64.4926C29.7082 64.6185 29.7529 64.7742 29.7529 64.9597C29.7529 65.1651 29.6983 65.3489 29.5889 65.5112C29.4796 65.6735 29.3223 65.801 29.1169 65.8938C28.9116 65.9832 28.6714 66.0279 28.3965 66.0279ZM31.4476 63.1759L31.3233 63.9014H32.4612L32.3469 64.5423H31.2091L31.0699 65.3224H32.3568L32.2376 65.9932H30.1011L30.7172 62.5052H32.8537L32.7344 63.1759H31.4476ZM37.0644 62.5052L36.9501 63.1759H36.021L35.5241 65.9932H34.6745L35.1714 63.1759H34.2472L34.3664 62.5052H37.0644ZM40.5118 62.5052L39.8957 65.9932H39.046L39.2994 64.5473H37.9778L37.7244 65.9932H36.8747L37.4908 62.5052H38.3405L38.097 63.8765H39.4187L39.6621 62.5052H40.5118ZM41.8555 63.1759L41.7313 63.9014H42.8691L42.7548 64.5423H41.617L41.4779 65.3224H42.7648L42.6455 65.9932H40.509L41.1251 62.5052H43.2616L43.1424 63.1759H41.8555ZM46.27 62.5052C46.5913 62.5052 46.8679 62.5631 47.0997 62.6791C47.3349 62.7917 47.5138 62.9524 47.6363 63.161C47.7622 63.3664 47.8251 63.6082 47.8251 63.8865C47.8251 63.9825 47.8136 64.1034 47.7904 64.2492C47.7307 64.5904 47.6016 64.8934 47.4028 65.1584C47.2074 65.4234 46.9573 65.6288 46.6525 65.7745C46.3511 65.9203 46.0182 65.9932 45.6538 65.9932H44.3471L44.9632 62.5052H46.27ZM45.7284 65.2677C46.0497 65.2677 46.3163 65.1783 46.5283 64.9994C46.7403 64.8206 46.8728 64.5705 46.9258 64.2492C46.9424 64.1498 46.9507 64.067 46.9507 64.0007C46.9507 63.7556 46.8761 63.5668 46.7271 63.4343C46.578 63.2985 46.366 63.2306 46.0911 63.2306H45.6837L45.3259 65.2677H45.7284ZM49.9992 62.5052C50.3603 62.5052 50.6352 62.588 50.824 62.7536C51.0128 62.9159 51.1072 63.1279 51.1072 63.3896C51.1072 63.4658 51.1006 63.537 51.0874 63.6032C51.0476 63.8351 50.9466 64.0421 50.7843 64.2243C50.622 64.4065 50.405 64.5357 50.1334 64.6119L50.6948 65.9932H49.7359L49.244 64.6765H49.0403L48.8068 65.9932H47.9571L48.5732 62.5052H49.9992ZM50.2179 63.638C50.2245 63.585 50.2278 63.5502 50.2278 63.5337C50.2278 63.4277 50.193 63.3465 50.1235 63.2902C50.0572 63.2306 49.9578 63.2008 49.8253 63.2008H49.2987L49.1446 64.0753H49.6713C49.827 64.0753 49.9495 64.0372 50.039 63.961C50.1317 63.8848 50.1914 63.7771 50.2179 63.638ZM52.6641 62.5052L52.048 65.9932H51.1984L51.8145 62.5052H52.6641ZM53.9208 62.5052L54.3233 65.1386L55.6499 62.5052H56.5542L54.7009 65.9932H53.6376L53.0165 62.5052H53.9208ZM57.6397 63.1759L57.5155 63.9014H58.6533L58.539 64.5423H57.4012L57.2621 65.3224H58.549L58.4297 65.9932H56.2932L56.9093 62.5052H59.0458L58.9266 63.1759H57.6397Z" fill="white"/>
</svg>
